<?xml version="1.0" standalone="no"?>
<!DOCTYPE svg PUBLIC "-//W3C//DTD SVG 20010904//EN"
 "http://www.w3.org/TR/2001/REC-SVG-20010904/DTD/svg10.dtd">
<svg version="1.0" xmlns="http://www.w3.org/2000/svg"
 width="1400.000000pt" height="772.000000pt" viewBox="0 0 1400.000000 772.000000"
 preserveAspectRatio="xMidYMid meet">

<g transform="translate(0.000000,772.000000) scale(0.100000,-0.100000)"
fill="#000000" stroke="none">
<path d="M6830 6504 c-114 -39 -183 -93 -369 -290 -32 -34 -68 -67 -80 -73
-12 -7 -20 -15 -18 -19 2 -4 -8 -18 -21 -32 -14 -14 -22 -19 -18 -12 4 6 5 12
2 12 -3 0 -13 -14 -21 -30 -9 -17 -20 -28 -25 -25 -6 4 -10 1 -10 -5 0 -11
-314 -330 -324 -330 -3 0 -29 -26 -58 -57 -90 -96 -543 -547 -563 -561 -11 -7
-13 -10 -5 -6 8 4 -18 -25 -59 -65 -40 -39 -77 -71 -82 -71 -5 0 -9 -6 -9 -12
0 -15 -100 -114 -112 -110 -4 1 -8 -3 -8 -10 0 -15 -481 -494 -493 -490 -5 1
-6 -1 -3 -6 3 -5 -39 -51 -92 -104 -95 -93 -165 -168 -156 -168 2 0 -7 -22
-20 -48 -83 -163 -72 -365 27 -512 70 -102 157 -169 277 -212 83 -30 230 -26
333 9 42 15 77 30 77 35 0 4 9 8 19 8 10 0 22 7 25 16 4 9 8 15 11 12 2 -2
435 427 962 954 547 547 968 961 982 965 21 5 46 -17 195 -168 94 -95 173
-174 176 -174 3 -1 145 -143 315 -315 171 -173 315 -317 320 -319 6 -2 13 -9
17 -14 8 -14 816 -822 892 -894 119 -112 288 -161 446 -130 78 15 159 46 190
73 8 7 19 13 23 13 5 0 17 11 28 26 12 14 26 22 32 18 7 -3 9 -3 5 1 -6 7 13
33 57 80 6 6 17 26 24 44 7 17 18 32 24 32 6 0 8 3 4 6 -3 4 1 23 9 43 15 34
35 261 24 261 -5 0 -31 94 -33 118 0 6 -4 12 -7 12 -4 0 -14 14 -21 32 -7 18
-20 39 -29 48 -44 47 -78 88 -75 92 2 2 -14 19 -36 38 -23 19 -60 55 -83 78
-22 24 -60 63 -82 87 -23 24 -44 42 -47 39 -2 -3 -12 6 -20 20 -23 34 -65 75
-71 69 -3 -3 -10 5 -17 18 -6 13 -34 43 -63 65 -28 23 -51 45 -50 50 0 5 -28
36 -63 70 -35 33 -63 59 -63 57 0 -2 -12 10 -27 27 -16 17 -50 53 -78 80 -27
27 -57 56 -65 64 -268 272 -484 486 -492 486 -5 0 -7 3 -5 8 3 4 -13 23 -35
42 -65 57 -128 122 -128 132 0 5 -4 7 -8 4 -5 -3 -16 8 -25 24 -10 16 -26 32
-37 35 -10 3 -28 20 -39 38 -11 18 -21 29 -21 25 0 -3 -28 23 -62 60 -100 105
-140 142 -151 142 -6 0 -8 2 -5 6 7 6 -399 414 -413 414 -6 0 -8 4 -5 8 3 5
-5 15 -18 22 -13 7 -29 23 -36 36 -7 13 -17 21 -21 18 -5 -3 -14 4 -21 16 -7
11 -18 20 -25 20 -7 0 -13 4 -13 8 0 5 -6 9 -12 10 -7 0 -42 13 -78 28 -57 24
-80 28 -180 31 -101 2 -124 -1 -190 -23z"/>
<path d="M6954 4345 c-10 -5 -143 -135 -296 -288 -285 -286 -302 -308 -284
-364 10 -31 580 -589 609 -597 16 -4 37 -1 51 6 22 12 106 84 106 91 0 2 72
75 161 163 88 87 166 164 172 171 152 155 157 161 157 195 0 25 -10 46 -37 78
-74 87 -521 528 -550 543 -33 18 -60 18 -89 2z"/>
<path d="M10569 2597 c-42 -28 -59 -60 -59 -115 0 -34 6 -49 33 -79 29 -31 41
-37 90 -41 64 -5 115 19 135 63 17 37 15 102 -5 136 -35 59 -132 78 -194 36z"/>
<path d="M3630 1960 l0 -650 115 0 115 0 0 196 c0 164 2 195 14 192 8 -2 79
-88 158 -193 l143 -190 123 -3 c100 -2 122 0 122 11 0 8 -78 122 -174 253
l-173 238 120 155 c67 86 138 178 159 204 21 27 38 53 38 58 0 5 -53 9 -119 9
l-119 0 -133 -175 c-74 -96 -140 -175 -146 -175 -10 0 -13 78 -13 360 l0 360
-115 0 -115 0 0 -650z"/>
<path d="M10030 2370 c0 -153 -4 -240 -10 -240 -5 0 -27 17 -48 38 -64 64
-102 77 -222 77 -99 0 -109 -2 -172 -33 -142 -70 -208 -208 -208 -437 0 -296
121 -461 345 -473 114 -6 172 14 243 85 29 29 58 53 63 53 5 0 9 -29 9 -65 l0
-65 110 0 110 0 0 650 0 650 -110 0 -110 0 0 -240z m-120 -330 c76 -39 120
-136 120 -265 0 -182 -79 -285 -218 -285 -88 0 -139 30 -177 105 -28 56 -30
65 -30 179 0 114 2 124 30 181 24 47 39 64 74 82 58 30 146 31 201 3z"/>
<path d="M2735 2528 c-31 -83 -415 -1202 -415 -1209 0 -5 52 -9 118 -9 l118 0
45 143 44 142 242 3 242 2 47 -145 46 -145 124 0 123 0 -74 213 c-40 116 -136
393 -212 614 l-138 403 -153 0 c-113 0 -154 -3 -157 -12z m241 -470 c42 -128
79 -239 82 -245 3 -10 -34 -13 -167 -13 -94 0 -171 3 -171 8 0 28 156 482 166
482 7 0 44 -96 90 -232z"/>
<path d="M6840 1925 l0 -615 105 0 105 0 0 410 c0 384 1 410 18 410 14 0 42
-71 141 -358 68 -196 133 -381 143 -409 l19 -53 97 0 97 0 141 408 c102 294
146 408 158 410 15 3 16 -32 16 -407 l0 -411 110 0 110 0 0 615 0 616 -151 -3
-151 -3 -52 -150 c-29 -82 -98 -286 -155 -452 -60 -177 -109 -303 -116 -303
-7 0 -76 186 -167 453 l-156 452 -156 3 -156 3 0 -616z"/>
<path d="M4750 2246 c-157 -34 -240 -129 -240 -273 1 -155 83 -229 320 -285
111 -26 145 -43 160 -79 25 -59 -13 -114 -87 -125 -90 -13 -183 18 -256 85
l-44 41 -66 -69 c-37 -38 -67 -73 -67 -78 0 -18 76 -86 124 -110 150 -76 369
-80 491 -9 50 30 102 86 123 135 23 52 21 175 -2 224 -43 89 -115 131 -291
172 -61 13 -124 32 -142 41 -39 20 -58 60 -44 96 17 44 48 58 131 58 81 0 140
-20 174 -59 11 -11 24 -21 31 -21 7 0 40 31 73 69 l61 68 -32 30 c-90 86 -263
123 -417 89z"/>
<path d="M5650 2245 c-83 -19 -175 -64 -230 -113 l-43 -38 52 -77 52 -78 42
36 c62 54 137 87 210 92 86 7 134 -9 154 -52 36 -76 -18 -120 -190 -154 -191
-38 -277 -86 -318 -176 -28 -61 -25 -176 5 -241 29 -62 92 -117 154 -135 73
-22 188 -16 245 11 43 20 117 91 117 112 0 20 17 4 38 -35 35 -65 86 -91 182
-90 100 1 131 13 125 50 -2 15 -7 53 -10 84 l-6 57 -38 -5 c-68 -9 -71 3 -71
289 0 222 -2 253 -20 301 -25 66 -80 121 -149 148 -71 27 -215 34 -301 14z
m248 -562 c-5 -149 -60 -212 -181 -213 -54 0 -62 3 -93 34 -29 29 -34 41 -34
83 0 81 34 111 156 137 38 7 85 21 104 29 19 9 39 16 43 16 5 1 7 -38 5 -86z"/>
<path d="M8670 2236 c-75 -20 -138 -57 -189 -111 -88 -93 -121 -188 -121 -350
0 -160 33 -256 118 -348 86 -92 208 -132 377 -125 118 5 186 31 257 97 42 38
87 105 78 114 -13 12 -152 98 -154 95 -25 -41 -65 -81 -101 -98 -38 -19 -59
-21 -129 -19 -70 3 -89 8 -124 32 -49 32 -81 89 -89 158 l-6 49 305 0 305 0 6
53 c7 67 -7 188 -27 246 -52 144 -181 222 -370 220 -50 0 -111 -6 -136 -13z
m225 -176 c49 -24 82 -76 91 -144 l7 -46 -202 0 -203 0 7 33 c17 75 71 144
130 165 50 17 125 14 170 -8z"/>
<path d="M11231 2235 c-88 -25 -231 -115 -231 -146 0 -8 62 -107 86 -137 1 -2
30 17 63 42 85 62 146 80 264 77 79 -2 128 -100 77 -151 -28 -28 -53 -36 -194
-66 -182 -39 -247 -72 -294 -153 -23 -40 -27 -57 -27 -126 0 -68 4 -89 29
-138 48 -100 138 -142 282 -135 96 5 159 36 201 99 14 21 29 39 34 39 4 0 18
-19 31 -42 40 -71 65 -83 178 -83 61 0 103 4 110 11 8 8 10 35 5 88 l-7 76
-44 0 c-33 0 -46 5 -54 19 -6 12 -10 110 -10 250 0 128 -5 253 -11 281 -17 77
-63 139 -132 174 -54 28 -68 30 -180 33 -86 2 -138 -2 -176 -12z m279 -548 c0
-66 -5 -92 -22 -127 -43 -85 -137 -119 -221 -82 -53 23 -69 48 -69 107 -2 79
38 116 149 139 40 9 87 22 105 30 57 25 58 24 58 -67z"/>
<path d="M10530 1775 l0 -465 115 0 115 0 0 465 0 465 -115 0 -115 0 0 -465z"/>
</g>
</svg>
